<svg id="visual" viewBox="0 0 960 540" width="960" height="540" xmlns="http://www.w3.org/2000/svg" xmlns:xlink="http://www.w3.org/1999/xlink" version="1.1"><rect x="0" y="0" width="960" height="540" fill="#001d2b"></rect><path d="M0 289L12.3 293.3C24.7 297.7 49.3 306.3 74 313.2C98.7 320 123.3 325 148 318C172.7 311 197.3 292 221.8 283C246.3 274 270.7 275 295.2 291.7C319.7 308.3 344.3 340.7 369 353.2C393.7 365.7 418.3 358.3 443 349.2C467.7 340 492.3 329 517 327.3C541.7 325.7 566.3 333.3 591 325C615.7 316.7 640.3 292.3 664.8 293.2C689.3 294 713.7 320 738.2 346.3C762.7 372.7 787.3 399.3 812 391.2C836.7 383 861.3 340 886 321.8C910.7 303.7 935.3 310.3 947.7 313.7L960 317L960 541L947.7 541C935.3 541 910.7 541 886 541C861.3 541 836.7 541 812 541C787.3 541 762.7 541 738.2 541C713.7 541 689.3 541 664.8 541C640.3 541 615.7 541 591 541C566.3 541 541.7 541 517 541C492.3 541 467.7 541 443 541C418.3 541 393.7 541 369 541C344.3 541 319.7 541 295.2 541C270.7 541 246.3 541 221.8 541C197.3 541 172.7 541 148 541C123.3 541 98.7 541 74 541C49.3 541 24.7 541 12.3 541L0 541Z" fill="#f37c71" stroke-linecap="round" stroke-linejoin="miter"></path></svg>